<svg width="201" height="34" viewBox="0 0 201 34" fill="none" xmlns="http://www.w3.org/2000/svg">
<path d="M15.7759 7.53369C14.7505 7.53369 13.835 7.75342 13.0293 8.19287C12.2236 8.61768 11.5352 9.24023 10.9639 10.0605C10.3926 10.8809 9.95312 11.8843 9.64551 13.0708C9.35254 14.2427 9.20605 15.5757 9.20605 17.0698C9.20605 19.0913 9.4624 20.7905 9.9751 22.1675C10.4878 23.5444 11.2642 24.5845 12.3042 25.2876C13.3589 25.9907 14.6772 26.3423 16.2593 26.3423C17.6948 26.3423 19.0718 26.1445 20.3901 25.749C21.7231 25.3535 23.0635 24.8774 24.4111 24.3208V31.6597C22.9902 32.2896 21.5327 32.7437 20.0386 33.022C18.5591 33.3003 16.9844 33.4395 15.3145 33.4395C11.8281 33.4395 8.97168 32.751 6.74512 31.374C4.5332 29.9824 2.8999 28.0562 1.84521 25.5952C0.805176 23.1343 0.285156 20.2778 0.285156 17.0259C0.285156 14.5942 0.62207 12.3677 1.2959 10.3462C1.98438 8.32471 2.98779 6.57422 4.30615 5.09473C5.62451 3.60059 7.25049 2.45068 9.18408 1.64502C11.1323 0.824707 13.3589 0.414551 15.8638 0.414551C17.4165 0.414551 19.0498 0.597656 20.7637 0.963867C22.4922 1.31543 24.1768 1.88672 25.8174 2.67773L23.1587 9.51123C21.9868 8.95459 20.8003 8.48584 19.5991 8.10498C18.3979 7.72412 17.1235 7.53369 15.7759 7.53369ZM60.7539 16.894C60.7539 19.3696 60.4536 21.6255 59.853 23.6616C59.2671 25.6831 58.3442 27.4263 57.0845 28.8911C55.8247 30.356 54.2061 31.4839 52.2285 32.2749C50.251 33.0513 47.8853 33.4395 45.1313 33.4395C42.436 33.4395 40.0996 33.0513 38.1221 32.2749C36.1592 31.4839 34.5405 30.3633 33.2661 28.9131C31.9917 27.4482 31.0469 25.6978 30.4316 23.6616C29.8164 21.6255 29.5088 19.355 29.5088 16.8501C29.5088 13.5103 30.0581 10.6099 31.1567 8.14893C32.27 5.67334 33.9839 3.76172 36.2983 2.41406C38.6128 1.05176 41.5718 0.370605 45.1753 0.370605C48.8374 0.370605 51.811 1.05176 54.0962 2.41406C56.396 3.77637 58.0806 5.69531 59.1499 8.1709C60.2192 10.6465 60.7539 13.5542 60.7539 16.894ZM38.6494 16.894C38.6494 18.8276 38.8691 20.4902 39.3086 21.8818C39.748 23.2734 40.4438 24.3428 41.396 25.0898C42.3481 25.8369 43.5933 26.2104 45.1313 26.2104C46.728 26.2104 47.9951 25.8369 48.9326 25.0898C49.8848 24.3428 50.5659 23.2734 50.9761 21.8818C51.4009 20.4902 51.6133 18.8276 51.6133 16.894C51.6133 13.9937 51.1299 11.7012 50.1631 10.0166C49.1963 8.33203 47.5337 7.48975 45.1753 7.48975C43.6079 7.48975 42.3408 7.87061 41.374 8.63232C40.4219 9.39404 39.7261 10.478 39.2866 11.8843C38.8618 13.2905 38.6494 14.9604 38.6494 16.894ZM66.5547 0.875977H77.7607C82.4043 0.875977 85.7148 1.56445 87.6924 2.94141C89.6699 4.31836 90.6587 6.2959 90.6587 8.87402C90.6587 10.2803 90.4023 11.4741 89.8896 12.4556C89.3916 13.437 88.7544 14.2134 87.978 14.7847C87.2163 15.356 86.4326 15.7441 85.627 15.9492V16.1689C86.5059 16.3887 87.3774 16.7549 88.2417 17.2676C89.1206 17.7656 89.8457 18.52 90.417 19.5308C91.0029 20.5269 91.2959 21.8818 91.2959 23.5957C91.2959 25.5439 90.7979 27.2212 89.8018 28.6274C88.8203 30.0337 87.4141 31.1177 85.583 31.8794C83.752 32.6265 81.5767 33 79.0571 33H66.5547V0.875977ZM75.2339 13.2026H77.8486C79.2842 13.2026 80.2949 12.9097 80.8809 12.3237C81.4668 11.7231 81.7598 10.998 81.7598 10.1484C81.7598 9.26953 81.4229 8.60303 80.749 8.14893C80.0898 7.68018 79.0645 7.4458 77.6729 7.4458H75.2339V13.2026ZM75.2339 19.5527V26.2983H78.2881C79.7969 26.2983 80.8516 25.9761 81.4521 25.3315C82.0527 24.6724 82.353 23.8521 82.353 22.8706C82.353 22.2993 82.2212 21.7646 81.9575 21.2666C81.7085 20.7539 81.2764 20.3438 80.6611 20.0361C80.0459 19.7139 79.1963 19.5527 78.1123 19.5527H75.2339ZM124.189 0.875977V20.2119C124.189 22.9072 123.676 25.251 122.651 27.2432C121.625 29.2207 120.087 30.7515 118.037 31.8354C115.986 32.9048 113.415 33.4395 110.324 33.4395C105.9 33.4395 102.524 32.3042 100.195 30.0337C97.8657 27.7632 96.7012 24.5552 96.7012 20.4097V0.875977H105.424V19.7285C105.424 21.999 105.849 23.647 106.699 24.6724C107.548 25.6978 108.801 26.2104 110.456 26.2104C111.643 26.2104 112.609 25.9907 113.356 25.5513C114.104 25.0972 114.646 24.3867 114.982 23.4199C115.334 22.4531 115.51 21.208 115.51 19.6846V0.875977H124.189ZM130.935 33V0.875977H139.658V33H130.935ZM146.623 33V0.875977H155.302V25.9907H167.673V33H146.623ZM200.083 16.2568C200.083 19.9922 199.387 23.0977 197.995 25.5732C196.604 28.0488 194.641 29.9092 192.106 31.1543C189.587 32.3848 186.621 33 183.208 33H172.814V0.875977H183.933C187.39 0.875977 190.319 1.46924 192.722 2.65576C195.124 3.84229 196.948 5.57812 198.193 7.86328C199.453 10.1484 200.083 12.9463 200.083 16.2568ZM191.074 16.5645C191.074 14.6162 190.81 13.0049 190.283 11.7305C189.77 10.4414 188.994 9.48193 187.954 8.85205C186.914 8.20752 185.603 7.88525 184.021 7.88525H181.494V25.8809H183.427C186.064 25.8809 187.998 25.1191 189.228 23.5957C190.458 22.0576 191.074 19.7139 191.074 16.5645Z" fill="#00ADB5"/>
</svg>
